# xmcd
#
# Track frame offsets:
#	150
#	12460
#	22330
#	34714
#	46014
#	54237
#	64925
#	72768
#	82852
#	94701
#	106549
#	114877
#	125903
#	138545
#	149306
#	159062
#
# Disc length: 2224 seconds
#
# Revision: 1
# Processed by: cddbd v1.5.2PL0 Copyright (c) Steve Scherf et al.
# Submitted via: audiograbber 1.83.01
#
DISCID=ca08ae10
DTITLE=Johnny Cash - Country All Stars CD 1
DYEAR=2008
DGENRE=Country
TTITLE0=I Walk The Line
TTITLE1=Ballad Of The Teenage Queen
TTITLE2=Next In Line
TTITLE3=Big River
TTITLE4=Guess Things Happen That Way
TTITLE5=Train Of Love
TTITLE6=I Can't Help It
TTITLE7=The Ways Of A Woman In Love
TTITLE8=You're The Nearest Thing To Heaven
TTITLE9=Home Of The Blues
TTITLE10=Country Boy
TTITLE11=Cry, Cry, Cry
TTITLE12=Folsom Prison Blues
TTITLE13=I Heard That Lonesome Whistle
TTITLE14=The Rock Island Line
TTITLE15=The Wreck Of Old '97
EXTD=
EXTT0=
EXTT1=
EXTT2=
EXTT3=
EXTT4=
EXTT5=
EXTT6=
EXTT7=
EXTT8=
EXTT9=
EXTT10=
EXTT11=
EXTT12=
EXTT13=
EXTT14=
EXTT15=
PLAYORDER=
